<?xml version="1.0" encoding="utf-8"?>
<!-- Generator: Adobe Illustrator 25.2.3, SVG Export Plug-In . SVG Version: 6.00 Build 0)  -->
<svg version="1.1" id="Layer_1" xmlns="http://www.w3.org/2000/svg" xmlns:xlink="http://www.w3.org/1999/xlink" x="0px" y="0px"
	 viewBox="0 0 168.65 57.75" style="enable-background:new 0 0 168.65 57.75;" xml:space="preserve">
<style type="text/css">
	.st0{enable-background:new    ;}
</style>
<g class="st0">
	<path d="M20.46,37.59H10.01l-2.29,7.09H1.48L11.8,14.95h7.31l10.32,29.73H22.7L20.46,37.59z M11.35,32.79h7.79l-3.69-11.66h-0.37
		L11.35,32.79z"/>
	<path d="M34.5,44.68V14.95h5.19l13.68,18.52h0.37V14.95h5.95v29.73h-5.15l-13.72-18.6h-0.37v18.6H34.5z"/>
	<path d="M66.91,44.68V14.95h5.19l13.68,18.52h0.37V14.95h5.95v29.73h-5.15l-13.72-18.6h-0.37v18.6H66.91z"/>
	<path d="M105.59,33.78c0,0.93,0.14,1.78,0.41,2.53c0.27,0.75,0.68,1.4,1.21,1.94c0.53,0.54,1.18,0.95,1.96,1.24
		c0.78,0.29,1.66,0.43,2.65,0.43c1,0,1.89-0.14,2.67-0.43c0.78-0.29,1.43-0.7,1.96-1.24c0.53-0.54,0.93-1.18,1.21-1.94
		s0.41-1.6,0.41-2.53V14.95h6.22v19.47c0,1.65-0.29,3.15-0.88,4.5c-0.58,1.35-1.42,2.51-2.5,3.48c-1.08,0.97-2.39,1.72-3.92,2.25
		c-1.53,0.53-3.25,0.79-5.16,0.79c-1.9,0-3.61-0.26-5.15-0.79c-1.54-0.53-2.85-1.28-3.92-2.25c-1.08-0.97-1.91-2.13-2.49-3.48
		c-0.58-1.35-0.88-2.85-0.88-4.5V14.95h6.22V33.78z"/>
	<path d="M148.38,37.59h-10.44l-2.29,7.09h-6.24l10.32-29.73h7.31l10.32,29.73h-6.74L148.38,37.59z M139.27,32.79h7.79l-3.69-11.66
		H143L139.27,32.79z"/>
	<path d="M162.43,44.68V14.95h6.22v29.73H162.43z"/>
</g>
</svg>
